<svg xmlns="http://www.w3.org/2000/svg" xmlns:xlink="http://www.w3.org/1999/xlink" id="Calque_1" x="0px" y="0px" width="560px" height="184.159px" viewBox="0 0 560 184.159" xml:space="preserve"><g>	<defs fill="#f5f5fa">		<rect id="SVGID_1_" x="10.764" y="3.537" width="538.473" height="177.08" fill="#f5f5fa"/>	</defs>	<clipPath id="SVGID_2_" fill="#f5f5fa">		<use xlink:href="#SVGID_1_" fill="#f5f5fa"/>	</clipPath>	<path clip-path="url(#SVGID_2_)" fill="#f5f5fa" d="M107.312,37.375h-0.092c5.668-3.024,9.529-8.991,9.529-15.864  c0-9.927-8.048-17.975-17.974-17.975c-9.927,0-17.975,8.048-17.975,17.975c0,6.873,3.861,12.84,9.53,15.864h-1.553  c-11.119,0-17.185,7.582-17.185,20.554v34h0.001v34.581c0,13.645,6.908,20.386,17.185,20.386h1.332  c-5.548,3.061-9.31,8.962-9.31,15.746c0,9.927,8.048,17.976,17.975,17.976c9.926,0,17.974-8.049,17.974-17.976  c0-6.784-3.761-12.686-9.309-15.746h0.549c11.791,0,17.691-7.414,17.691-20.894V91.93h0.001V58.269  C125.681,44.621,120.287,37.375,107.312,37.375 M105.292,91.93L105.292,91.93v36.096h-13.48V91.93h-0.001V64.432l6.626-3.257  l6.855,3.257V91.93z M107.341,63.369l-8.875-4.214l-8.556,4.204l-1.445-2.939l9.977-4.904l10.304,4.894L107.341,63.369z"/>	<path clip-path="url(#SVGID_2_)" fill="#f5f5fa" d="M10.764,146.955V37.435H49.01c10.447,0,14.323,5.56,14.323,19.208v37.404  c0,9.438-2.192,14.829-7.586,16.851l9.606,36.058H45.134l-8.592-33.698h-5.559v33.698H10.764z M43.45,94.386v-37.91h-7.396h-5.071  v37.91H43.45z"/>	<polygon clip-path="url(#SVGID_2_)" fill="#f5f5fa" points="134.597,37.435 154.816,37.435 154.816,83.434 168.803,83.434   168.803,37.435 189.022,37.435 189.022,146.955 168.803,146.955 168.803,102.137 154.816,102.137 154.816,146.955 134.597,146.955    "/>	<path clip-path="url(#SVGID_2_)" fill="#f5f5fa" d="M251.749,132.481c0.368-1.997,0.557-4.186,0.557-6.57V58.177  c0-13.648-5.391-20.894-18.366-20.894h-18.535c-11.119,0-17.185,7.583-17.185,20.555v68.579c0,13.647,6.907,20.389,17.185,20.389  h2.698l13.609-0.119c0.899,2.839,3.554,4.898,6.691,4.898h25.602v-19.104H251.749z M218.438,56.324h13.478v71.61h-13.478V56.324z"/>	<path clip-path="url(#SVGID_2_)" fill="#f5f5fa" d="M293.246,66.572h-4.98V37.565h6.989c5.585,0,8.438,2.371,8.438,8.558  c0,4.66-1.809,6.549-3.496,7.312l4.219,13.137h-5.062l-3.536-12.012c-0.643,0.08-1.688,0.121-2.571,0.121V66.572z M293.246,50.583  h1.769c2.691,0,3.695-1.004,3.695-4.459s-1.004-4.46-3.695-4.46h-1.769V50.583z"/>	<path clip-path="url(#SVGID_2_)" fill="#f5f5fa" d="M320.851,56.608h-9.48v3.134c0,2.491,0.883,3.536,2.489,3.536  c1.607,0,2.491-1.045,2.491-3.536v-0.481h4.5c-0.081,4.58-1.969,7.714-6.991,7.714c-5.143,0-6.989-3.295-6.989-8.036v-6.348  c0-4.741,1.847-8.035,6.989-8.035s6.991,3.294,6.991,8.035V56.608z M316.351,52.913v-1.125c0-2.49-0.884-3.535-2.491-3.535  c-1.606,0-2.489,1.045-2.489,3.535v1.125H316.351z"/>	<path clip-path="url(#SVGID_2_)" fill="#f5f5fa" d="M338.932,48.292c-0.241-0.04-0.482-0.04-0.723-0.04  c-0.804,0-1.527,0.161-2.169,0.684c0.32,1.124,0.48,2.53,0.48,3.414c0,6.589-2.249,8.678-6.829,8.678h-1.446  c-0.482,0.12-0.885,0.483-0.885,1.004c0,2.934,11.571-1.406,11.571,6.228c0,3.696-3.455,5.142-9.24,5.142  c-4.5,0-7.15-1.205-7.15-3.455c0-1.687,1.364-3.012,2.932-3.375v-0.08c-1.205-0.482-2.049-1.326-2.049-2.732  c0-1.487,1.526-2.812,2.731-3.495c-2.25-1.567-2.893-2.692-2.893-7.754c0-5.947,1.929-7.955,6.991-7.955  c1.928,0,3.576,0.683,4.981,2.33c1.205-1.768,1.808-2.33,3.696-2.33V48.292z M334.915,68.582c0-1.125-0.805-1.606-3.818-1.606  c-3.013,0-3.816,0.481-3.816,1.606s0.804,1.607,3.816,1.607C334.11,70.188,334.915,69.707,334.915,68.582 M332.021,52.792  c0-3.656-0.481-4.54-2.25-4.54c-1.446,0-2.25,0.884-2.25,4.54c0,3.656,0.804,4.54,2.25,4.54  C331.54,57.333,332.021,56.449,332.021,52.792"/>	<path clip-path="url(#SVGID_2_)" fill="#f5f5fa" d="M340.862,66.573V44.959h4.299v2.53h0.08c1.085-1.848,2.974-2.933,5.103-2.933  h0.924v4.702c-0.803-0.202-1.566-0.443-2.893-0.443c-1.526,0-3.014,0.964-3.014,2.893v14.865H340.862z"/>	<path clip-path="url(#SVGID_2_)" fill="#f5f5fa" d="M352.998,52.592c0-4.741,1.847-8.035,6.989-8.035s6.991,3.294,6.991,8.035  v6.348c0,4.741-1.849,8.036-6.991,8.036s-6.989-3.295-6.989-8.036V52.592z M362.479,51.788c0-2.49-0.884-3.535-2.491-3.535  c-1.606,0-2.49,1.045-2.49,3.535v7.955c0,2.491,0.884,3.536,2.49,3.536c1.607,0,2.491-1.045,2.491-3.536V51.788z"/>	<path clip-path="url(#SVGID_2_)" fill="#f5f5fa" d="M383.612,44.958v21.614h-4.259v-2.169c-1.888,1.607-2.853,2.572-5.464,2.572  c-2.37,0-3.776-1.728-3.776-4.54V44.958h4.499v16.753c0,1.085,0.645,1.567,1.607,1.567c0.964,0,1.848-0.602,2.893-1.366V44.958  H383.612z"/>	<path clip-path="url(#SVGID_2_)" fill="#f5f5fa" d="M391.248,44.959v2.249h0.08c1.486-1.888,2.571-2.652,4.821-2.652  c2.813,0,4.58,2.089,4.58,6.027v10.366c0,3.936-1.768,6.026-4.58,6.026c-1.969,0-2.892-0.803-4.661-2.25v8.678h-4.499V44.959  H391.248z M391.488,62.154c0.884,0.643,1.688,1.125,2.571,1.125c1.206,0,2.17-0.644,2.17-3.496v-8.035  c0-2.853-0.964-3.495-2.17-3.495c-0.884,0-1.688,0.482-2.571,1.125V62.154z"/>	<path clip-path="url(#SVGID_2_)" fill="#f5f5fa" d="M417.605,56.608h-9.481v3.134c0,2.491,0.884,3.536,2.49,3.536  c1.607,0,2.491-1.045,2.491-3.536v-0.481h4.5c-0.081,4.58-1.969,7.714-6.991,7.714c-5.143,0-6.989-3.295-6.989-8.036v-6.348  c0-4.741,1.847-8.035,6.989-8.035s6.991,3.294,6.991,8.035V56.608z M413.105,52.913v-1.125c0-2.49-0.884-3.535-2.491-3.535  c-1.606,0-2.49,1.045-2.49,3.535v1.125H413.105z"/>	<path clip-path="url(#SVGID_2_)" fill="#f5f5fa" d="M429.7,66.573V49.82c0-1.085-0.683-1.567-1.566-1.567  c-0.965,0-1.849,0.602-2.894,1.366v16.954h-4.499V44.959H425v2.169c1.888-1.607,2.852-2.572,4.981-2.572  c2.25,0,2.973,0.804,3.938,2.572c2.169-2.089,3.375-2.572,5.021-2.572c2.813,0,4.219,1.728,4.219,4.54v17.477h-4.5V49.82  c0-1.085-0.723-1.567-1.605-1.567c-0.966,0-1.85,0.602-2.854,1.366v16.954H429.7z"/>	<path clip-path="url(#SVGID_2_)" fill="#f5f5fa" d="M460.318,56.608h-9.481v3.134c0,2.491,0.884,3.536,2.49,3.536  c1.607,0,2.491-1.045,2.491-3.536v-0.481h4.5c-0.081,4.58-1.969,7.714-6.991,7.714c-5.143,0-6.989-3.295-6.989-8.036v-6.348  c0-4.741,1.847-8.035,6.989-8.035s6.991,3.294,6.991,8.035V56.608z M455.818,52.913v-1.125c0-2.49-0.884-3.535-2.491-3.535  c-1.606,0-2.49,1.045-2.49,3.535v1.125H455.818z"/>	<path clip-path="url(#SVGID_2_)" fill="#f5f5fa" d="M463.454,66.573V44.959h4.259v2.169c1.888-1.607,2.852-2.572,5.465-2.572  c2.369,0,3.775,1.728,3.775,4.54v17.477h-4.5V49.82c0-1.085-0.643-1.567-1.606-1.567c-0.965,0-1.849,0.602-2.894,1.366v16.954  H463.454z"/>	<path clip-path="url(#SVGID_2_)" fill="#f5f5fa" d="M478.562,48.655v-3.696h2.491v-5.826h4.5v5.826h3.013v3.696h-3.013v12.454  c0,1.125,0.483,1.768,1.527,1.768h1.485v3.857c-0.603,0.16-1.125,0.241-2.249,0.241c-3.375,0-5.264-1.567-5.264-4.861V48.655  H478.562z"/>	<path clip-path="url(#SVGID_2_)" fill="#f5f5fa" d="M507.691,66.572v-2.25h-0.08c-1.487,1.889-2.571,2.653-4.821,2.653  c-2.813,0-4.58-2.09-4.58-6.027V50.583c0-3.937,1.768-6.026,4.58-6.026c1.97,0,2.893,0.803,4.66,2.25v-9.241h4.5v29.007H507.691z   M507.45,49.377c-0.884-0.643-1.687-1.125-2.571-1.125c-1.204,0-2.17,0.643-2.17,3.495v8.035c0,2.853,0.966,3.496,2.17,3.496  c0.885,0,1.688-0.482,2.571-1.125V49.377z"/>	<path clip-path="url(#SVGID_2_)" fill="#f5f5fa" d="M529.067,56.608h-9.48v3.134c0,2.491,0.883,3.536,2.489,3.536  c1.607,0,2.491-1.045,2.491-3.536v-0.481h4.5c-0.081,4.58-1.969,7.714-6.991,7.714c-5.143,0-6.989-3.295-6.989-8.036v-6.348  c0-4.741,1.847-8.035,6.989-8.035s6.991,3.294,6.991,8.035V56.608z M524.567,52.913v-1.125c0-2.49-0.884-3.535-2.491-3.535  c-1.606,0-2.489,1.045-2.489,3.535v1.125H524.567z"/>	<path clip-path="url(#SVGID_2_)" fill="#f5f5fa" d="M540.398,50.945c-0.32-1.729-1.125-2.692-2.57-2.692  c-1.165,0-1.97,0.602-1.97,1.727c0,3.375,8.438,4.741,8.438,11.169c0,3.858-2.651,5.826-6.308,5.826  c-3.938,0-6.188-2.25-6.869-6.026l3.937-1.085c0.281,1.808,0.924,3.415,2.973,3.415c1.165,0,2.01-0.684,2.01-1.889  c0-3.736-8.438-5.142-8.438-11.049c0-3.415,2.653-5.785,6.028-5.785c3.535,0,5.904,2.37,6.588,5.745L540.398,50.945z"/>	<path clip-path="url(#SVGID_2_)" fill="#f5f5fa" d="M287.783,92.662c0-4.741,1.847-8.035,6.989-8.035s6.991,3.294,6.991,8.035  v6.348c0,4.741-1.849,8.036-6.991,8.036s-6.989-3.295-6.989-8.036V92.662z M297.264,91.858c0-2.49-0.884-3.535-2.491-3.535  c-1.606,0-2.489,1.045-2.489,3.535v7.955c0,2.491,0.883,3.536,2.489,3.536c1.607,0,2.491-1.045,2.491-3.536V91.858z"/>	<path clip-path="url(#SVGID_2_)" fill="#f5f5fa" d="M305.783,88.725h-2.65v-3.696h2.65v-2.693c0-3.495,1.849-5.102,5.022-5.102  h2.25v3.696h-1.286c-1.085,0-1.486,0.402-1.486,1.446v2.653h2.571v3.696h-2.571v17.918h-4.5V88.725z"/>	<path clip-path="url(#SVGID_2_)" fill="#f5f5fa" d="M315.387,88.725h-2.652v-3.696h2.652v-2.693c0-3.495,1.848-5.102,5.021-5.102  h2.25v3.696h-1.284c-1.085,0-1.488,0.402-1.488,1.446v2.653h2.572v3.696h-2.572v17.918h-4.499V88.725z M324.024,77.636h4.5v4.098  h-4.5V77.636z M324.024,85.029h4.5v21.614h-4.5V85.029z"/>	<path clip-path="url(#SVGID_2_)" fill="#f5f5fa" d="M341.182,92.42v-0.562c0-2.491-0.884-3.536-2.491-3.536  c-1.606,0-2.49,1.045-2.49,3.536v7.955c0,2.491,0.884,3.536,2.49,3.536c1.607,0,2.491-1.045,2.491-3.536v-1.366h4.5v0.563  c0,4.739-1.849,8.034-6.991,8.034s-6.989-3.295-6.989-8.034v-6.35c0-4.74,1.847-8.035,6.989-8.035c5.063,0,6.91,3.174,6.991,7.794  H341.182z"/>	<path clip-path="url(#SVGID_2_)" fill="#f5f5fa" d="M362.558,96.679h-9.48v3.134c0,2.491,0.883,3.536,2.489,3.536  c1.607,0,2.491-1.045,2.491-3.536v-0.48h4.5c-0.081,4.58-1.969,7.714-6.991,7.714c-5.143,0-6.989-3.295-6.989-8.036v-6.348  c0-4.741,1.847-8.035,6.989-8.035s6.991,3.294,6.991,8.035V96.679z M358.058,92.982v-1.125c0-2.49-0.884-3.535-2.491-3.535  c-1.606,0-2.489,1.045-2.489,3.535v1.125H358.058z"/>	<path clip-path="url(#SVGID_2_)" fill="#f5f5fa" d="M373.889,91.015c-0.32-1.729-1.125-2.692-2.57-2.692  c-1.165,0-1.97,0.602-1.97,1.727c0,3.375,8.438,4.741,8.438,11.168c0,3.858-2.651,5.826-6.308,5.826  c-3.938,0-6.188-2.25-6.87-6.025l3.938-1.085c0.281,1.808,0.924,3.414,2.973,3.414c1.165,0,2.01-0.684,2.01-1.889  c0-3.736-8.438-5.142-8.438-11.049c0-3.415,2.653-5.785,6.028-5.785c3.535,0,5.904,2.37,6.588,5.745L373.889,91.015z"/>	<path clip-path="url(#SVGID_2_)" fill="#f5f5fa" d="M399.483,106.643v-2.25h-0.08c-1.487,1.89-2.571,2.653-4.821,2.653  c-2.813,0-4.58-2.09-4.58-6.027V90.653c0-3.937,1.768-6.026,4.58-6.026c1.97,0,2.893,0.803,4.66,2.25v-9.241h4.5v29.007H399.483z   M399.242,89.448c-0.884-0.643-1.687-1.125-2.571-1.125c-1.204,0-2.169,0.643-2.169,3.495v8.035c0,2.854,0.965,3.496,2.169,3.496  c0.885,0,1.688-0.481,2.571-1.125V89.448z"/>	<polygon clip-path="url(#SVGID_2_)" fill="#f5f5fa" points="411.779,82.376 409.008,87.358 406.879,87.358 408.847,82.376   407.038,82.376 407.038,77.637 411.779,77.637  "/>	<path clip-path="url(#SVGID_2_)" fill="#f5f5fa" d="M415.075,106.644V77.636h4.499v9.402c1.647-1.447,2.611-2.412,5.225-2.412  c2.369,0,3.775,1.728,3.775,4.54v17.478h-4.5V89.89c0-1.085-0.643-1.567-1.606-1.567c-0.965,0-1.849,0.602-2.894,1.366v16.955  H415.075z"/>	<path clip-path="url(#SVGID_2_)" fill="#f5f5fa" d="M431.469,91.376c0.241-4.38,3.013-6.75,7.231-6.75  c4.179,0,6.549,1.929,6.549,5.866v13.861c0,0.683,0.161,1.566,0.281,2.29h-4.299c-0.04-0.604-0.201-1.165-0.241-1.688  c-1.687,1.366-3.094,2.09-5.262,2.09c-3.055,0-4.581-2.09-4.581-4.86c0-4.741,3.134-7.354,9.602-9.804v-1.285  c0-1.809-0.723-2.773-2.209-2.773c-2.05,0-2.491,1.206-2.571,3.054H431.469z M440.749,95.675c-4.098,2.33-5.102,3.816-5.102,5.705  c0,1.406,0.723,1.97,2.089,1.97c1.245,0,2.25-0.926,3.013-2.01V95.675z"/>	<path clip-path="url(#SVGID_2_)" fill="#f5f5fa" d="M448.826,106.644V77.636h4.499v9.24c1.77-1.446,2.692-2.25,4.661-2.25  c2.813,0,4.58,2.089,4.58,6.027v10.366c0,3.936-1.767,6.025-4.58,6.025c-2.25,0-3.335-0.763-4.821-2.651h-0.081v2.25H448.826z   M453.325,102.224c0.884,0.644,1.688,1.125,2.571,1.125c1.206,0,2.17-0.644,2.17-3.495v-8.036c0-2.853-0.964-3.495-2.17-3.495  c-0.884,0-1.688,0.482-2.571,1.125V102.224z"/>	<path clip-path="url(#SVGID_2_)" fill="#f5f5fa" d="M465.742,77.636h4.499v4.098h-4.499V77.636z M465.742,85.029h4.499v21.614  h-4.499V85.029z"/>	<path clip-path="url(#SVGID_2_)" fill="#f5f5fa" d="M471.89,88.725v-3.696h2.491v-5.826h4.5v5.826h3.013v3.696h-3.013v12.454  c0,1.125,0.483,1.769,1.527,1.769h1.485v3.856c-0.603,0.16-1.125,0.241-2.249,0.241c-3.375,0-5.264-1.566-5.264-4.86V88.725H471.89  z"/>	<path clip-path="url(#SVGID_2_)" fill="#f5f5fa" d="M483.342,91.376c0.241-4.38,3.013-6.75,7.231-6.75  c4.179,0,6.549,1.929,6.549,5.866v13.861c0,0.683,0.161,1.566,0.281,2.29h-4.299c-0.04-0.604-0.201-1.165-0.241-1.688  c-1.688,1.366-3.094,2.09-5.262,2.09c-3.055,0-4.581-2.09-4.581-4.86c0-4.741,3.134-7.354,9.602-9.804v-1.285  c0-1.809-0.723-2.773-2.209-2.773c-2.05,0-2.491,1.206-2.571,3.054H483.342z M492.622,95.675c-4.098,2.33-5.102,3.816-5.102,5.705  c0,1.406,0.723,1.97,2.089,1.97c1.245,0,2.25-0.926,3.013-2.01V95.675z"/>	<path clip-path="url(#SVGID_2_)" fill="#f5f5fa" d="M498.932,88.725v-3.696h2.491v-5.826h4.5v5.826h3.013v3.696h-3.013v12.454  c0,1.125,0.483,1.769,1.527,1.769h1.485v3.856c-0.603,0.16-1.125,0.241-2.249,0.241c-3.375,0-5.264-1.566-5.264-4.86V88.725  H498.932z"/>	<path clip-path="url(#SVGID_2_)" fill="#f5f5fa" d="M510.946,77.636h4.499v4.098h-4.499V77.636z M510.946,85.029h4.499v21.614  h-4.499V85.029z"/>	<path clip-path="url(#SVGID_2_)" fill="#f5f5fa" d="M518.621,92.662c0-4.741,1.847-8.035,6.989-8.035s6.991,3.294,6.991,8.035  v6.348c0,4.741-1.849,8.036-6.991,8.036s-6.989-3.295-6.989-8.036V92.662z M528.102,91.858c0-2.49-0.884-3.535-2.491-3.535  c-1.606,0-2.49,1.045-2.49,3.535v7.955c0,2.491,0.884,3.536,2.49,3.536c1.607,0,2.491-1.045,2.491-3.536V91.858z"/>	<path clip-path="url(#SVGID_2_)" fill="#f5f5fa" d="M535.737,106.644V85.029h4.259v2.169c1.888-1.607,2.852-2.572,5.465-2.572  c2.369,0,3.775,1.728,3.775,4.54v17.478h-4.5V89.89c0-1.085-0.643-1.567-1.606-1.567s-1.849,0.602-2.894,1.366v16.955H535.737z"/>	<path clip-path="url(#SVGID_2_)" fill="#f5f5fa" d="M297.264,146.713v-2.25h-0.08c-1.486,1.89-2.571,2.653-4.821,2.653  c-2.813,0-4.58-2.09-4.58-6.027v-10.366c0-3.937,1.768-6.025,4.58-6.025c1.97,0,2.893,0.803,4.66,2.25v-9.241h4.5v29.007H297.264z   M297.022,129.519c-0.884-0.644-1.687-1.125-2.571-1.125c-1.204,0-2.169,0.643-2.169,3.494v8.035c0,2.854,0.965,3.496,2.169,3.496  c0.885,0,1.688-0.481,2.571-1.125V129.519z"/>	<path clip-path="url(#SVGID_2_)" fill="#f5f5fa" d="M318.398,125.099v21.614h-4.259v-2.169c-1.887,1.607-2.852,2.572-5.464,2.572  c-2.37,0-3.776-1.729-3.776-4.54v-17.478h4.5v16.754c0,1.085,0.644,1.566,1.606,1.566c0.965,0,1.849-0.602,2.894-1.366v-16.954  H318.398z"/>	<path clip-path="url(#SVGID_2_)" fill="#f5f5fa" d="M346.726,148.883c-1.848,0-3.294-0.32-5.063-2.691  c-1.084,0.603-2.45,0.925-4.058,0.925c-5.223,0-7.634-3.335-7.634-7.433v-14.946c0-4.098,2.411-7.434,7.634-7.434  s7.634,3.336,7.634,7.434v14.946c0,1.364-0.281,2.65-0.844,3.735c1.125,0.964,1.808,1.085,2.33,1.125V148.883z M337.967,136.349  c0.522,0.28,1.326,0.683,2.29,1.768v-13.258c0-2.17-0.643-3.215-2.651-3.215s-2.651,1.045-2.651,3.215v14.704  c0,2.17,0.643,3.214,2.651,3.214c0.764,0,1.326-0.16,1.688-0.442c-0.563-1.045-1.004-1.326-1.326-1.566V136.349z"/>	<path clip-path="url(#SVGID_2_)" fill="#f5f5fa" d="M362.356,125.099v21.614h-4.259v-2.169c-1.888,1.607-2.852,2.572-5.464,2.572  c-2.37,0-3.776-1.729-3.776-4.54v-17.478h4.499v16.754c0,1.085,0.645,1.566,1.607,1.566c0.964,0,1.848-0.602,2.893-1.366v-16.954  H362.356z"/>	<path clip-path="url(#SVGID_2_)" fill="#f5f5fa" d="M379.474,136.749h-9.48v3.134c0,2.491,0.883,3.536,2.489,3.536  c1.607,0,2.491-1.045,2.491-3.536v-0.48h4.5c-0.081,4.58-1.969,7.714-6.991,7.714c-5.143,0-6.989-3.295-6.989-8.036v-6.348  c0-4.741,1.847-8.035,6.989-8.035s6.991,3.294,6.991,8.035V136.749z M372.965,122.528h-3.335l3.174-5.787h5.424L372.965,122.528z   M374.974,133.053v-1.125c0-2.489-0.884-3.534-2.491-3.534c-1.606,0-2.489,1.045-2.489,3.534v1.125H374.974z"/>	<path clip-path="url(#SVGID_2_)" fill="#f5f5fa" d="M382.609,146.714v-29.008h4.499v9.24c1.77-1.446,2.692-2.25,4.661-2.25  c2.813,0,4.58,2.089,4.58,6.027v10.366c0,3.936-1.767,6.025-4.58,6.025c-2.25,0-3.335-0.763-4.821-2.651h-0.081v2.25H382.609z   M387.108,142.294c0.884,0.644,1.688,1.125,2.571,1.125c1.206,0,2.17-0.644,2.17-3.495v-8.035c0-2.854-0.964-3.495-2.17-3.495  c-0.884,0-1.688,0.481-2.571,1.125V142.294z"/>	<path clip-path="url(#SVGID_2_)" fill="#f5f5fa" d="M413.226,136.749h-9.48v3.134c0,2.491,0.883,3.536,2.489,3.536  c1.607,0,2.491-1.045,2.491-3.536v-0.48h4.5c-0.081,4.58-1.969,7.714-6.991,7.714c-5.143,0-6.989-3.295-6.989-8.036v-6.348  c0-4.741,1.847-8.035,6.989-8.035s6.991,3.294,6.991,8.035V136.749z M408.726,133.053v-1.125c0-2.489-0.884-3.534-2.491-3.534  c-1.606,0-2.489,1.045-2.489,3.534v1.125H408.726z"/>	<path clip-path="url(#SVGID_2_)" fill="#f5f5fa" d="M425.602,132.49v-0.562c0-2.491-0.884-3.536-2.491-3.536  c-1.606,0-2.49,1.045-2.49,3.536v7.955c0,2.491,0.884,3.536,2.49,3.536c1.607,0,2.491-1.045,2.491-3.536v-1.366h4.5v0.563  c0,4.739-1.849,8.034-6.991,8.034s-6.989-3.295-6.989-8.034v-6.35c0-4.74,1.847-8.035,6.989-8.035c5.063,0,6.91,3.175,6.991,7.794  H425.602z"/></g></svg>