<svg xmlns="http://www.w3.org/2000/svg" version="1.0" width="220.000000pt" height="90.000000pt" viewBox="0 0 220.000000 90.000000" preserveAspectRatio="xMidYMid meet" transform="matrix(1, 0, 0, 1, 0, 0)">

<g transform="translate(0.000000,90.000000) scale(0.100000,-0.100000)" fill="#f5f5fa" stroke="none">
<path d="M474 778 c-32 -39 -113 -202 -116 -237 -2 -13 3 -26 9 -28 14 -5 63 43 63 61 0 6 -10 -1 -21 -16 -11 -16 -25 -28 -30 -28 -23 0 -4 38 51 97 63 69 106 144 96 168 -8 23 -22 18 -52 -17z m36 -15 c0 -20 -90 -143 -105 -143 -8 0 33 80 62 118 22 30 43 42 43 25z" fill="#f5f5fa"/>
<path d="M480 608 c-33 -45 -39 -85 -15 -95 9 -3 25 3 35 12 18 16 20 16 20 2 0 -17 18 -33 27 -23 3 3 1 12 -6 20 -9 11 -8 23 5 55 31 79 -15 100 -66 29z m60 9 c0 -17 -48 -87 -60 -87 -16 0 -11 33 10 68 20 32 50 44 50 19z" fill="#f5f5fa"/>
<path d="M1367 563 c-2 -5 -35 -102 -72 -217 -37 -115 -69 -215 -72 -223 -4 -11 16 -13 118 -11 l123 3 37 120 c21 66 53 168 72 228 l35 107 -119 0 c-65 0 -120 -3 -122 -7z" fill="#f5f5fa"/>
<path d="M209 437 c-80 -27 -130 -64 -153 -110 -35 -75 -7 -143 79 -186 60 -30 197 -40 289 -21 60 12 67 19 90 98 7 21 6 21 -21 11 -80 -30 -184 -29 -205 3 -33 52 26 131 105 143 28 4 66 3 93 -4 26 -7 49 -9 52 -6 3 3 1 22 -4 42 -11 46 -26 51 -159 52 -79 0 -114 -4 -166 -22z" fill="#f5f5fa"/>
<path d="M665 450 c-15 -6 -28 -32 -48 -96 -15 -49 -38 -124 -51 -166 l-24 -78 117 0 117 0 54 111 c54 109 81 139 125 139 20 0 20 -1 -20 -126 -19 -60 -35 -112 -35 -116 0 -5 53 -8 118 -8 l118 0 32 105 c49 159 41 203 -41 234 -33 13 -432 14 -462 1z" fill="#f5f5fa"/>
</g>
</svg>