<svg width="78" height="12" viewBox="0 0 78 12" fill="none" xmlns="http://www.w3.org/2000/svg">
<path d="M6.42692 0L8.42006 3.6372L12.2905 4.52804L9.65188 7.66679L10.0508 11.8546L6.42692 10.1572L2.80304 11.8546L3.20196 7.66679L0.563354 4.52804L4.43379 3.6372L6.42692 0Z" fill="#273922"/>
<path d="M22.7144 0.00012207L24.7075 3.63733L28.578 4.52816L25.9394 7.66691L26.3383 11.8547L22.7144 10.1573L19.0905 11.8547L19.4894 7.66691L16.8508 4.52816L20.7213 3.63733L22.7144 0.00012207Z" fill="#273922"/>
<path d="M38.6764 0.00012207L40.5588 3.63733L44.2142 4.52816L41.7222 7.66691L42.0989 11.8547L38.6764 10.1573L35.2538 11.8547L35.6306 7.66691L33.1385 4.52816L36.794 3.63733L38.6764 0.00012207Z" fill="#273922"/>
<path d="M54.9637 0.00012207L57.0676 3.63733L61.1531 4.52816L58.3679 7.66691L58.7889 11.8547L54.9637 10.1573L51.1385 11.8547L51.5596 7.66691L48.7744 4.52816L52.8599 3.63733L54.9637 0.00012207Z" fill="#273922"/>
<path d="M71.5774 0.00012207L73.5706 3.63733L77.441 4.52816L74.8024 7.66691L75.2013 11.8547L71.5774 10.1573L67.9536 11.8547L68.3525 7.66691L65.7139 4.52816L69.5843 3.63733L71.5774 0.00012207Z" fill="#F7F7FF"/>
</svg>
