<svg xmlns="http://www.w3.org/2000/svg" version="1.0" width="1530.000000pt" height="331.000000pt" viewBox="0 0 1530.000000 331.000000" preserveAspectRatio="xMidYMid meet">

<g transform="translate(0.000000,331.000000) scale(0.100000,-0.100000)" fill="#f5f5fa" stroke="none">
<path d="M11087 3303 c-4 -3 -7 -258 -7 -565 l0 -558 920 0 920 0 0 565 0 565 -913 0 c-503 0 -917 -3 -920 -7z m1033 -218 c23 -46 25 -115 6 -165 -67 -174 -77 -209 -83 -281 -6 -79 -6 -79 18 -79 23 0 26 6 37 71 19 113 62 183 134 220 150 77 292 -99 195 -242 -31 -46 -43 -46 -50 -1 -9 53 -47 87 -98 87 -47 0 -83 -32 -104 -91 l-13 -39 46 -5 c46 -5 47 -6 50 -42 l3 -38 -95 0 c-75 0 -96 -3 -96 -14 0 -21 40 -66 58 -66 9 0 24 -4 32 -10 12 -7 11 -12 -5 -30 -14 -15 -29 -20 -54 -18 -33 3 -36 1 -42 -31 -4 -18 -18 -45 -32 -59 -22 -22 -28 -24 -42 -12 -22 18 -45 64 -45 89 0 17 -5 19 -35 14 -26 -4 -41 -1 -55 12 -27 24 -25 33 8 41 35 8 72 42 72 66 0 16 -10 18 -96 18 l-95 0 3 38 c3 37 3 37 51 40 44 3 47 5 41 25 -16 56 -38 87 -70 102 -66 31 -133 -8 -136 -78 -2 -44 -19 -48 -46 -9 -47 66 -51 136 -12 200 42 69 125 90 199 52 75 -38 124 -122 138 -237 5 -47 8 -53 29 -53 22 0 24 4 24 56 0 68 -20 148 -61 244 -36 86 -45 152 -27 202 7 20 39 71 71 113 l58 75 50 -63 c27 -34 58 -80 69 -102z" fill="#f5f5fa"/>
<path d="M13460 2745 l0 -565 915 0 915 0 0 565 0 565 -915 0 -915 0 0 -565z m970 435 c29 -36 59 -78 67 -94 25 -49 19 -131 -18 -221 -44 -111 -59 -170 -59 -242 0 -60 1 -63 24 -63 21 0 24 5 29 59 9 106 70 206 144 237 145 62 271 -100 188 -241 -34 -60 -55 -65 -55 -16 0 114 -142 135 -191 28 -27 -62 -25 -67 26 -67 l45 0 0 -40 0 -40 -95 0 c-52 0 -95 -2 -95 -5 0 -4 7 -19 15 -35 10 -20 28 -33 55 -41 22 -7 40 -16 40 -20 0 -19 -51 -41 -79 -36 -27 6 -29 3 -35 -27 -7 -35 -40 -86 -56 -86 -17 0 -50 44 -61 80 -10 33 -14 35 -44 32 -25 -3 -39 2 -56 19 l-23 23 38 11 c39 11 76 46 76 71 0 11 -21 14 -95 14 l-95 0 0 40 0 40 45 0 c51 0 54 8 31 65 -15 35 -67 75 -98 75 -54 0 -98 -50 -98 -111 l0 -32 -26 24 c-113 103 -34 303 112 286 92 -10 164 -89 185 -203 6 -33 13 -69 15 -81 3 -15 12 -23 24 -23 18 0 20 7 20 73 0 74 -19 147 -69 260 -26 59 -28 145 -5 190 16 31 116 168 120 164 1 -1 26 -31 54 -67z" fill="#f5f5fa"/>
<path d="M6040 2793 c-21 -9 -94 -19 -188 -26 -142 -10 -152 -12 -135 -26 34 -28 62 -77 78 -137 13 -50 15 -189 15 -994 0 -649 -3 -947 -11 -975 -7 -23 -26 -53 -47 -72 -20 -18 -32 -33 -26 -33 5 0 65 -9 134 -20 211 -33 402 -44 529 -31 443 46 721 306 772 721 19 155 -7 342 -65 473 -81 184 -244 326 -427 373 -47 12 -92 15 -174 12 -163 -7 -166 -9 -258 -168 -42 -72 -77 -134 -77 -136 0 -2 18 5 40 16 96 49 219 62 325 35 219 -57 347 -281 331 -580 -14 -264 -136 -434 -361 -501 -94 -28 -265 -22 -387 12 -17 5 -18 63 -18 1040 0 569 -3 1034 -7 1033 -5 0 -24 -8 -43 -16z" fill="#f5f5fa"/>
<path d="M1028 2759 c-182 -14 -386 -86 -539 -189 -152 -103 -306 -285 -384 -453 -110 -238 -134 -572 -60 -847 31 -115 116 -291 184 -381 248 -326 640 -481 1034 -408 l64 12 90 -79 c427 -377 842 -495 1168 -334 56 27 153 105 144 115 -2 2 -40 -1 -84 -7 -218 -28 -448 33 -652 174 -71 48 -303 261 -303 277 0 4 15 14 33 23 62 30 176 129 239 208 120 149 200 318 241 510 27 126 29 374 4 503 -59 295 -228 552 -466 705 -140 90 -335 157 -486 167 -44 3 -91 7 -105 9 -14 1 -69 -1 -122 -5z m267 -254 c350 -93 585 -468 585 -936 0 -279 -83 -503 -244 -664 -132 -130 -279 -193 -471 -202 -82 -4 -126 -1 -175 11 -311 77 -570 406 -631 800 -16 103 -6 323 20 421 11 44 44 127 72 185 46 91 64 117 143 195 121 120 225 174 394 205 66 12 235 4 307 -15z" fill="#f5f5fa"/>
<path d="M5120 2625 c-103 -55 -229 -156 -334 -266 l-96 -101 0 -70 0 -70 25 16 c134 88 313 165 443 191 l32 7 0 164 c0 90 -1 164 -2 164 -2 0 -32 -16 -68 -35z" fill="#f5f5fa"/>
<path d="M2720 2053 c-25 -12 -78 -18 -187 -21 -84 -2 -153 -8 -153 -11 0 -4 13 -17 29 -29 16 -11 39 -43 52 -69 24 -48 24 -51 30 -498 6 -418 7 -456 28 -534 75 -291 266 -425 581 -408 197 11 365 86 455 205 l35 45 0 -107 0 -106 195 0 196 0 -37 33 c-21 17 -47 52 -58 77 -21 44 -21 60 -24 742 l-3 697 -37 -16 c-27 -12 -80 -18 -195 -21 l-158 -4 45 -45 c71 -70 71 -68 71 -513 0 -386 -1 -396 -22 -450 -69 -168 -251 -290 -432 -290 -139 0 -240 57 -299 168 -58 109 -62 144 -62 685 0 268 -3 487 -7 486 -5 0 -24 -8 -43 -16z" fill="#f5f5fa"/>
<path d="M4731 2049 c-175 -34 -338 -132 -436 -260 -96 -127 -151 -279 -162 -450 -26 -412 220 -738 635 -841 70 -18 116 -22 237 -21 157 0 257 15 362 55 49 18 56 25 85 81 64 127 117 247 105 240 -7 -5 -38 -25 -70 -46 -121 -80 -254 -117 -417 -117 -118 0 -193 16 -285 59 -179 84 -303 276 -322 497 l-6 74 558 0 558 0 -6 93 c-26 389 -302 650 -686 646 -58 -1 -126 -5 -150 -10z m300 -229 c108 -40 196 -150 215 -268 l7 -42 -392 0 c-215 0 -391 4 -391 8 0 25 43 127 69 165 82 119 193 171 351 163 53 -3 106 -12 141 -26z" fill="#f5f5fa"/>
<path d="M7926 2039 c-213 -52 -382 -188 -476 -384 -63 -131 -75 -187 -75 -370 0 -140 3 -169 23 -235 90 -287 314 -486 625 -557 89 -20 335 -22 422 -4 33 7 94 23 135 37 l75 24 78 155 c42 85 75 155 72 155 -3 0 -26 -15 -52 -34 -125 -88 -243 -126 -413 -133 -147 -6 -223 8 -328 61 -175 88 -289 266 -310 485 l-8 81 559 0 560 0 -6 81 c-15 196 -78 341 -202 465 -92 92 -180 143 -301 174 -103 27 -268 26 -378 -1z m329 -214 c109 -38 178 -112 215 -233 11 -35 20 -68 20 -73 0 -5 -168 -9 -391 -9 l-391 0 6 31 c20 100 107 218 197 265 88 46 241 54 344 19z" fill="#f5f5fa"/>
<path d="M9620 2041 c-179 -39 -309 -107 -425 -225 -128 -129 -193 -275 -217 -485 -26 -233 37 -429 192 -594 108 -116 236 -191 399 -235 84 -22 116 -25 256 -25 158 0 239 11 340 46 38 13 44 21 117 163 43 82 77 153 78 158 0 4 -15 -3 -33 -16 -107 -83 -277 -138 -421 -138 -112 0 -186 18 -294 71 -443 216 -441 906 3 1059 169 58 379 21 498 -89 24 -23 47 -41 51 -41 4 0 5 75 4 168 l-3 167 -60 13 c-33 7 -136 15 -230 18 -140 3 -185 1 -255 -15z" fill="#f5f5fa"/>
<path d="M11080 1080 l0 -560 920 0 920 0 0 560 0 560 -920 0 -920 0 0 -560z m982 425 c92 -118 98 -165 39 -312 -44 -112 -61 -182 -61 -253 0 -46 2 -50 24 -50 21 0 24 6 30 53 14 122 62 204 142 243 60 29 96 28 152 -6 37 -23 72 -88 72 -135 0 -37 -30 -104 -57 -128 -20 -17 -20 -17 -27 23 -9 56 -44 90 -93 90 -60 0 -99 -37 -117 -112 -6 -28 -6 -28 44 -28 l50 0 0 -35 0 -35 -95 0 c-84 0 -95 -2 -95 -18 0 -31 29 -61 65 -68 60 -11 40 -50 -29 -56 -34 -3 -39 -7 -51 -41 -16 -47 -33 -67 -55 -67 -22 0 -50 41 -57 84 -5 29 -7 31 -38 28 -38 -5 -75 12 -75 33 0 9 10 15 25 15 31 0 75 41 75 70 0 19 -6 20 -95 20 l-95 0 0 35 0 35 50 0 c57 0 59 5 31 66 -24 52 -55 74 -104 74 -61 0 -97 -48 -88 -117 3 -22 -16 -14 -43 17 -74 88 -50 212 51 261 42 20 50 21 92 10 25 -7 60 -23 78 -37 44 -33 91 -134 99 -211 6 -58 9 -63 30 -63 22 0 24 4 24 58 0 69 -20 150 -61 246 -37 89 -45 148 -27 202 15 41 117 185 130 181 3 -1 30 -33 60 -72z" fill="#f5f5fa"/>
<path d="M13460 1080 l0 -560 915 0 915 0 0 560 0 560 -915 0 -915 0 0 -560z m982 421 c85 -115 92 -173 36 -306 -42 -97 -58 -164 -58 -237 0 -65 1 -68 24 -68 22 0 24 5 28 65 13 161 130 277 247 245 43 -11 97 -64 107 -106 12 -48 -2 -121 -30 -159 -33 -43 -46 -44 -46 -4 0 61 -35 98 -91 99 -44 0 -86 -30 -105 -76 -23 -56 -19 -64 31 -64 45 0 45 0 45 -35 l0 -35 -96 0 c-94 0 -95 0 -89 -22 9 -32 52 -68 81 -68 28 0 30 -7 7 -32 -10 -11 -30 -18 -55 -18 -29 0 -38 -4 -38 -17 0 -24 -36 -82 -55 -90 -22 -8 -53 24 -67 69 -10 35 -14 38 -46 38 -33 0 -72 22 -72 42 0 4 12 8 26 8 28 0 84 49 84 74 0 13 -15 16 -95 16 l-95 0 0 35 c0 35 0 35 45 35 39 0 45 3 45 20 0 29 -28 81 -54 102 -58 47 -156 -1 -156 -77 0 -33 -2 -35 -21 -25 -27 15 -59 85 -59 133 0 76 52 144 123 161 46 11 108 -12 153 -58 42 -42 84 -133 84 -184 0 -48 11 -72 32 -72 19 0 20 5 16 93 -4 79 -10 106 -46 196 -44 108 -53 172 -31 228 11 31 117 173 128 172 3 0 32 -35 63 -78z" fill="#f5f5fa"/>
</g>
</svg>