<?xml version="1.0" encoding="UTF-8"?>
<svg id="Calque_1" data-name="Calque 1" xmlns="http://www.w3.org/2000/svg" viewBox="0 0 344.35 110.93">
  <defs>
    <style>
      .cls-1 {
        fill: #88b07e;
      }

      .cls-1, .cls-2 {
        stroke-width: 0px;
      }

      .cls-2 {
        fill: #fff;
      }
    </style>
  </defs>
  <g>
    <path class="cls-2" d="M0,92.51V31.54h39.87v8.82H11.07v17.21h26.98v8.82H11.07v26.12H0Z"/>
    <path class="cls-2" d="M48.6,92.51V31.54h11.07v51.54h29.23v9.43h-40.3Z"/>
    <path class="cls-2" d="M97.2,92.51V31.54h11.07v25.42h31.39v-25.42h11.07v60.97h-11.07v-26.29h-31.39v26.29h-11.07Z"/>
    <path class="cls-2" d="M164.04,92.51V31.54h11.07v51.54h29.23v9.43h-40.3Z"/>
    <path class="cls-2" d="M212.82,92.51V31.54h9.25l23,42.46h-2.77l22.92-42.46h9.08v60.97h-10.03v-44.54h1.9l-19.37,35.28h-6.49l-19.54-35.37h2.08v44.62h-10.03Z"/>
    <path class="cls-2" d="M315.03,93.37c-4.44,0-8.46-.73-12.06-2.21-3.6-1.47-6.69-3.59-9.25-6.36-2.57-2.77-4.54-6.08-5.92-9.94-1.38-3.86-2.08-8.16-2.08-12.89s.69-9.09,2.08-12.93c1.38-3.83,3.36-7.12,5.92-9.86,2.56-2.74,5.65-4.84,9.25-6.31,3.6-1.47,7.62-2.21,12.06-2.21s8.46.73,12.06,2.21c3.6,1.47,6.69,3.56,9.25,6.27,2.56,2.71,4.54,5.98,5.92,9.81,1.38,3.83,2.08,8.14,2.08,12.93s-.69,9.11-2.08,12.97c-1.38,3.86-3.36,7.18-5.92,9.94-2.57,2.77-5.65,4.89-9.25,6.36-3.6,1.47-7.62,2.21-12.06,2.21ZM315.03,83.86c3.75,0,6.93-.86,9.56-2.59,2.62-1.73,4.64-4.24,6.05-7.52,1.41-3.29,2.12-7.21,2.12-11.76s-.69-8.55-2.08-11.8c-1.38-3.26-3.4-5.74-6.05-7.44-2.65-1.7-5.85-2.55-9.6-2.55s-6.86.85-9.51,2.55c-2.65,1.7-4.68,4.18-6.1,7.44-1.41,3.26-2.12,7.19-2.12,11.8s.71,8.48,2.12,11.76c1.41,3.29,3.44,5.79,6.1,7.52,2.65,1.73,5.82,2.59,9.51,2.59ZM331.55,110.93l-8.39-13.58c-.81-1.33-1.89-2.32-3.24-2.98-1.36-.66-3.01-.99-4.97-.99l8.56-3.37c1.79,0,3.34.2,4.67.61,1.33.4,2.51,1.07,3.54,1.99,1.04.92,2.02,2.19,2.94,3.81l6.31,10.03-9.43,4.5Z"/>
  </g>
  <path class="cls-1" d="M48.6,31.54L72.64,1.16h11.19l24.44,30.38h-11.07L74.66,3.53h7.26l-22.25,28.02h-11.07Z"/>
</svg>